<mxfile host="app.diagrams.net" agent="Mozilla/5.0 (X11; Linux x86_64) AppleWebKit/537.36 (KHTML, like Gecko) Chrome/137.0.0.0 Safari/537.36" version="27.1.6">
  <diagram name="Page-1" id="0gVxitBU7VwRr00oollg">
    <mxGraphModel dx="983" dy="515" grid="1" gridSize="10" guides="1" tooltips="1" connect="1" arrows="1" fold="1" page="1" pageScale="1" pageWidth="850" pageHeight="1100" math="0" shadow="0">
      <root>
        <mxCell id="0" />
        <mxCell id="1" parent="0" />
        <mxCell id="CKIHX-kGqTEzOEbkYl9c-3" style="edgeStyle=orthogonalEdgeStyle;rounded=0;orthogonalLoop=1;jettySize=auto;html=1;entryX=0.5;entryY=0;entryDx=0;entryDy=0;" edge="1" parent="1" source="CKIHX-kGqTEzOEbkYl9c-1" target="CKIHX-kGqTEzOEbkYl9c-6">
          <mxGeometry relative="1" as="geometry" />
        </mxCell>
        <mxCell id="CKIHX-kGqTEzOEbkYl9c-1" value="Inicio" style="ellipse;whiteSpace=wrap;html=1;" vertex="1" parent="1">
          <mxGeometry x="365" y="100" width="120" height="80" as="geometry" />
        </mxCell>
        <mxCell id="CKIHX-kGqTEzOEbkYl9c-5" style="edgeStyle=orthogonalEdgeStyle;rounded=0;orthogonalLoop=1;jettySize=auto;html=1;entryX=0.5;entryY=0;entryDx=0;entryDy=0;" edge="1" parent="1" source="CKIHX-kGqTEzOEbkYl9c-2" target="CKIHX-kGqTEzOEbkYl9c-4">
          <mxGeometry relative="1" as="geometry">
            <mxPoint x="420" y="410" as="targetPoint" />
          </mxGeometry>
        </mxCell>
        <mxCell id="CKIHX-kGqTEzOEbkYl9c-2" value="Recibir input del usuario" style="shape=parallelogram;perimeter=parallelogramPerimeter;whiteSpace=wrap;html=1;fixedSize=1;" vertex="1" parent="1">
          <mxGeometry x="365" y="310" width="120" height="60" as="geometry" />
        </mxCell>
        <mxCell id="CKIHX-kGqTEzOEbkYl9c-9" style="edgeStyle=orthogonalEdgeStyle;rounded=0;orthogonalLoop=1;jettySize=auto;html=1;entryX=0.5;entryY=0;entryDx=0;entryDy=0;" edge="1" parent="1" source="CKIHX-kGqTEzOEbkYl9c-4" target="CKIHX-kGqTEzOEbkYl9c-8">
          <mxGeometry relative="1" as="geometry" />
        </mxCell>
        <mxCell id="CKIHX-kGqTEzOEbkYl9c-10" value="Audio" style="edgeLabel;html=1;align=center;verticalAlign=middle;resizable=0;points=[];" vertex="1" connectable="0" parent="CKIHX-kGqTEzOEbkYl9c-9">
          <mxGeometry x="0.3434" y="4" relative="1" as="geometry">
            <mxPoint x="-15" y="-14" as="offset" />
          </mxGeometry>
        </mxCell>
        <mxCell id="CKIHX-kGqTEzOEbkYl9c-14" style="edgeStyle=orthogonalEdgeStyle;rounded=0;orthogonalLoop=1;jettySize=auto;html=1;entryX=1;entryY=0.5;entryDx=0;entryDy=0;" edge="1" parent="1" source="CKIHX-kGqTEzOEbkYl9c-4" target="CKIHX-kGqTEzOEbkYl9c-11">
          <mxGeometry relative="1" as="geometry">
            <mxPoint x="630" y="610" as="targetPoint" />
            <Array as="points">
              <mxPoint x="580" y="470" />
              <mxPoint x="580" y="660" />
            </Array>
          </mxGeometry>
        </mxCell>
        <mxCell id="CKIHX-kGqTEzOEbkYl9c-4" value="¿Input por texto o voz?" style="rhombus;whiteSpace=wrap;html=1;" vertex="1" parent="1">
          <mxGeometry x="368" y="410" width="115" height="120" as="geometry" />
        </mxCell>
        <mxCell id="CKIHX-kGqTEzOEbkYl9c-7" style="edgeStyle=orthogonalEdgeStyle;rounded=0;orthogonalLoop=1;jettySize=auto;html=1;entryX=0.5;entryY=0;entryDx=0;entryDy=0;" edge="1" parent="1" source="CKIHX-kGqTEzOEbkYl9c-6" target="CKIHX-kGqTEzOEbkYl9c-2">
          <mxGeometry relative="1" as="geometry" />
        </mxCell>
        <mxCell id="CKIHX-kGqTEzOEbkYl9c-6" value="Cargar idioma según elección del usuario" style="rounded=0;whiteSpace=wrap;html=1;" vertex="1" parent="1">
          <mxGeometry x="365" y="210" width="120" height="60" as="geometry" />
        </mxCell>
        <mxCell id="CKIHX-kGqTEzOEbkYl9c-13" style="edgeStyle=orthogonalEdgeStyle;rounded=0;orthogonalLoop=1;jettySize=auto;html=1;entryX=0;entryY=0.5;entryDx=0;entryDy=0;" edge="1" parent="1" source="CKIHX-kGqTEzOEbkYl9c-8" target="CKIHX-kGqTEzOEbkYl9c-11">
          <mxGeometry relative="1" as="geometry">
            <Array as="points">
              <mxPoint x="220" y="660" />
            </Array>
          </mxGeometry>
        </mxCell>
        <mxCell id="CKIHX-kGqTEzOEbkYl9c-8" value="Procesar audio y convertirlo en texto" style="rounded=0;whiteSpace=wrap;html=1;" vertex="1" parent="1">
          <mxGeometry x="160" y="520" width="120" height="60" as="geometry" />
        </mxCell>
        <mxCell id="CKIHX-kGqTEzOEbkYl9c-17" style="edgeStyle=orthogonalEdgeStyle;rounded=0;orthogonalLoop=1;jettySize=auto;html=1;entryX=0.5;entryY=0;entryDx=0;entryDy=0;" edge="1" parent="1" source="CKIHX-kGqTEzOEbkYl9c-11" target="CKIHX-kGqTEzOEbkYl9c-16">
          <mxGeometry relative="1" as="geometry" />
        </mxCell>
        <mxCell id="CKIHX-kGqTEzOEbkYl9c-11" value="Buscar pregunta en base de datos" style="rounded=0;whiteSpace=wrap;html=1;" vertex="1" parent="1">
          <mxGeometry x="365" y="630" width="120" height="60" as="geometry" />
        </mxCell>
        <mxCell id="CKIHX-kGqTEzOEbkYl9c-15" value="Texto" style="edgeLabel;html=1;align=center;verticalAlign=middle;resizable=0;points=[];" vertex="1" connectable="0" parent="1">
          <mxGeometry x="380" y="480" as="geometry">
            <mxPoint x="194" y="-22" as="offset" />
          </mxGeometry>
        </mxCell>
        <mxCell id="CKIHX-kGqTEzOEbkYl9c-21" style="edgeStyle=orthogonalEdgeStyle;rounded=0;orthogonalLoop=1;jettySize=auto;html=1;entryX=0.5;entryY=0;entryDx=0;entryDy=0;" edge="1" parent="1" source="CKIHX-kGqTEzOEbkYl9c-16" target="CKIHX-kGqTEzOEbkYl9c-19">
          <mxGeometry relative="1" as="geometry">
            <mxPoint x="610" y="800" as="targetPoint" />
          </mxGeometry>
        </mxCell>
        <mxCell id="CKIHX-kGqTEzOEbkYl9c-26" style="edgeStyle=orthogonalEdgeStyle;rounded=0;orthogonalLoop=1;jettySize=auto;html=1;entryX=0;entryY=0.5;entryDx=0;entryDy=0;" edge="1" parent="1" source="CKIHX-kGqTEzOEbkYl9c-16" target="CKIHX-kGqTEzOEbkYl9c-18">
          <mxGeometry relative="1" as="geometry">
            <mxPoint x="290" y="830" as="targetPoint" />
            <Array as="points">
              <mxPoint x="290" y="800" />
              <mxPoint x="290" y="970" />
            </Array>
          </mxGeometry>
        </mxCell>
        <mxCell id="CKIHX-kGqTEzOEbkYl9c-16" value="¿Respuesta encontrada?" style="rhombus;whiteSpace=wrap;html=1;" vertex="1" parent="1">
          <mxGeometry x="358.5" y="730" width="134" height="140" as="geometry" />
        </mxCell>
        <mxCell id="CKIHX-kGqTEzOEbkYl9c-31" style="edgeStyle=orthogonalEdgeStyle;rounded=0;orthogonalLoop=1;jettySize=auto;html=1;entryX=0.5;entryY=0;entryDx=0;entryDy=0;" edge="1" parent="1" source="CKIHX-kGqTEzOEbkYl9c-18" target="CKIHX-kGqTEzOEbkYl9c-29">
          <mxGeometry relative="1" as="geometry" />
        </mxCell>
        <mxCell id="CKIHX-kGqTEzOEbkYl9c-18" value="Recuperar respuesta" style="rounded=0;whiteSpace=wrap;html=1;" vertex="1" parent="1">
          <mxGeometry x="365.5" y="940" width="120" height="60" as="geometry" />
        </mxCell>
        <mxCell id="CKIHX-kGqTEzOEbkYl9c-24" style="edgeStyle=orthogonalEdgeStyle;rounded=0;orthogonalLoop=1;jettySize=auto;html=1;entryX=1;entryY=0.5;entryDx=0;entryDy=0;" edge="1" parent="1" source="CKIHX-kGqTEzOEbkYl9c-19" target="CKIHX-kGqTEzOEbkYl9c-18">
          <mxGeometry relative="1" as="geometry">
            <Array as="points">
              <mxPoint x="620" y="970" />
            </Array>
          </mxGeometry>
        </mxCell>
        <mxCell id="CKIHX-kGqTEzOEbkYl9c-19" value="Consultar con LLM y guardar en base de datos" style="rounded=0;whiteSpace=wrap;html=1;" vertex="1" parent="1">
          <mxGeometry x="560" y="840" width="120" height="60" as="geometry" />
        </mxCell>
        <mxCell id="CKIHX-kGqTEzOEbkYl9c-23" value="No" style="edgeLabel;html=1;align=center;verticalAlign=middle;resizable=0;points=[];" vertex="1" connectable="0" parent="1">
          <mxGeometry x="620" y="790" as="geometry" />
        </mxCell>
        <mxCell id="CKIHX-kGqTEzOEbkYl9c-28" value="Sí" style="edgeLabel;html=1;align=center;verticalAlign=middle;resizable=0;points=[];" vertex="1" connectable="0" parent="1">
          <mxGeometry x="290" y="790" as="geometry">
            <mxPoint x="4" y="-1" as="offset" />
          </mxGeometry>
        </mxCell>
        <mxCell id="CKIHX-kGqTEzOEbkYl9c-33" style="edgeStyle=orthogonalEdgeStyle;rounded=0;orthogonalLoop=1;jettySize=auto;html=1;entryX=0.5;entryY=0;entryDx=0;entryDy=0;" edge="1" parent="1" source="CKIHX-kGqTEzOEbkYl9c-29" target="CKIHX-kGqTEzOEbkYl9c-32">
          <mxGeometry relative="1" as="geometry" />
        </mxCell>
        <mxCell id="CKIHX-kGqTEzOEbkYl9c-29" value="Reproducir respuesta (en audio o texto, según eliga el usuario)" style="rounded=0;whiteSpace=wrap;html=1;" vertex="1" parent="1">
          <mxGeometry x="365.5" y="1040" width="120" height="60" as="geometry" />
        </mxCell>
        <mxCell id="CKIHX-kGqTEzOEbkYl9c-32" value="Fin" style="ellipse;whiteSpace=wrap;html=1;" vertex="1" parent="1">
          <mxGeometry x="365" y="1140" width="120" height="80" as="geometry" />
        </mxCell>
      </root>
    </mxGraphModel>
  </diagram>
</mxfile>
